<?xml version="1.0" encoding="utf-8"?>
<!-- Generator: Adobe Illustrator 24.0.3, SVG Export Plug-In . SVG Version: 6.00 Build 0)  -->
<svg version="1.1" id="Layer_1" xmlns="http://www.w3.org/2000/svg" xmlns:xlink="http://www.w3.org/1999/xlink" x="0px" y="0px"
	 viewBox="0 0 284.7 244.5" style="enable-background:new 0 0 284.7 244.5;" xml:space="preserve">
<style type="text/css">
	.st0{fill:#F24032;}
</style>
<g>
	<g>
		<g>
			<g>
				<circle class="st0" cx="106.1" cy="97.3" r="8.4"/>
			</g>
			<g>
				<circle class="st0" cx="79.2" cy="97.3" r="8.4"/>
			</g>
			<g>
				<circle class="st0" cx="52.3" cy="97.3" r="8.4"/>
			</g>
			<g>
				<path class="st0" d="M118.7,128.4c-0.6,0.3-1.4,0.4-2.1,0.4H76V141c0,0.2-0.2,0.4-0.3,0.5c-0.2,0.1-0.4,0.1-0.6,0l-7.2-6.1
					l-7.9-6.6H41.7c-3.7,0-6.5-2.9-6.5-6.5V73.5c0-0.4,0-0.8,0.1-1.2c0.6-1.8,1.5-3.3,2.8-4.2h0.1c0.8-0.6,1.8-0.9,2.9-1
					c0.2,0,0.4,0,0.6,0c0,0,0,0,0.1,0h88.9c0.6-2.3,1.5-4.5,2.5-6.6H40.9c-0.2,0-0.4,0-0.6,0.1c-0.3,0-0.6,0.1-0.9,0.1
					c-0.2,0-0.3,0-0.4,0.1c-0.2,0-0.4,0.1-0.6,0.1c-1.7,0.4-3.3,1.1-4.7,2.1c-0.7,0.6-1.6,1.1-1.9,1.9c-2.1,2.3-3.3,5.4-3.3,8.8
					v48.6c0,7.4,5.9,13.2,13.2,13.2h15.9l18.1,15.1l3.3,2.8c0,0,0.1,0.1,0.2,0.1c1.5,1,3.5,0,3.5-1.8v-16.2h33.8
					c1.7,0,3.2-0.3,4.7-0.8C120.3,132.4,119.5,130.4,118.7,128.4z"/>
			</g>
		</g>
	</g>
	<g>
		<path class="st0" d="M265.6,217.2c-3.6-12.5-8.4-20.4-13.2-25.5c-7.8-8.4-15.6-9-18-9.6c-0.5-0.1-0.9-0.2-1.4-0.3
			c-1.4-1.3-2.6-3.2-3.5-5.5c-2.2-5.6-2.9-13.6-2.8-21.5c0-5.5,0.4-11,0.9-15.6c5.7-1.6,9.9-6.5,9.9-12.4v-10.1
			c0-5.9-4.3-10.9-10.1-12.4c0,0-0.1,0-0.1,0v-0.6v-11c0-23.7-20.6-43.1-45.8-43.1S135.7,69,135.7,92.7v11.6
			c-5.8,1.5-10,6.5-10,12.4v10.1c0,5.9,4.2,10.8,9.8,12.4c0.5,4.7,0.9,10.1,0.9,15.6c0.1,7.9-0.6,15.9-2.8,21.6
			c-0.9,2.2-2,4.1-3.5,5.5c-0.5,0.1-0.9,0.2-1.3,0.3c-2.4,0.5-10.1,1.2-18,9.6c-4.8,5.1-9.6,13-13.2,25.5c0,0.2-0.1,0.3-0.1,0.5
			c0.8-0.1,1.6-0.2,2.4-0.2h163.6c0.8,0,1.6,0.1,2.3,0.2C265.7,217.5,265.7,217.4,265.6,217.2z M181.5,58.7
			c12.6,0,23.8,6.1,30.3,15.3c-0.2-0.2-0.4-0.4-0.7-0.6c-0.2-0.2-0.4-0.4-0.6-0.5c-0.6-0.4-1.1-0.9-1.7-1.3
			c-0.1-0.1-0.2-0.1-0.3-0.2c-0.7-0.5-1.3-0.9-2-1.3c-0.2-0.1-0.4-0.2-0.6-0.3c-0.5-0.3-1-0.5-1.4-0.8c-0.2-0.1-0.5-0.2-0.7-0.4
			c-0.4-0.2-0.9-0.4-1.3-0.6c-0.3-0.1-0.5-0.2-0.7-0.3c-0.4-0.2-0.9-0.3-1.3-0.5c-0.2-0.1-0.5-0.2-0.7-0.3c-0.5-0.2-1-0.3-1.5-0.5
			c-0.1,0-0.3-0.1-0.4-0.1c-0.6-0.2-1.2-0.3-1.8-0.5c-0.2,0-0.4-0.1-0.6-0.1c-0.4-0.1-0.8-0.2-1.2-0.3c-0.2,0-0.5-0.1-0.7-0.1
			c-0.3-0.1-0.7-0.1-1-0.2c-0.2,0-0.5-0.1-0.7-0.1c-0.3,0-0.6-0.1-1-0.1c-0.2,0-0.4-0.1-0.6-0.1c-0.3,0-0.6-0.1-1-0.1
			c-0.2,0-0.3,0-0.5,0c-0.4,0-0.8,0-1.2-0.1c-0.2,0-0.3,0-0.5,0c-0.2,0-0.4,0-0.6,0c-1,0-1.7,0-2.3,0.1c-0.1,0-0.1,0-0.2,0
			c-0.2,0-0.4,0-0.5,0c0,0-0.1,0-0.1,0c-0.1,0-0.2,0-0.2,0c-0.6,0-1.1-0.1-1.7-0.1c-0.6,0-1.1,0-1.7,0.1c0,0-0.1,0-0.2,0
			c0,0-0.1,0-0.1,0c-0.1,0-0.3,0-0.5,0c-0.1,0-0.1,0-0.2,0c-0.6-0.1-1.3-0.1-2.3-0.1c-0.2,0-0.4,0-0.6,0c-0.2,0-0.3,0-0.5,0
			c-0.4,0-0.8,0-1.3,0.1c-0.1,0-0.3,0-0.4,0c-0.3,0-0.7,0-1,0.1c-0.2,0-0.4,0-0.6,0.1c-0.3,0-0.7,0.1-1,0.1c-0.2,0-0.4,0.1-0.6,0.1
			c-0.4,0.1-0.7,0.1-1.1,0.2c-0.2,0-0.4,0.1-0.6,0.1c-0.4,0.1-0.9,0.2-1.3,0.3c-0.2,0-0.3,0.1-0.5,0.1c-0.6,0.1-1.2,0.3-1.9,0.5
			c-0.1,0-0.2,0.1-0.3,0.1c-0.5,0.2-1.1,0.3-1.6,0.5c-0.2,0.1-0.4,0.2-0.6,0.2c-0.5,0.2-0.9,0.3-1.4,0.5c-0.2,0.1-0.5,0.2-0.7,0.3
			c-0.4,0.2-0.9,0.4-1.3,0.6c-0.2,0.1-0.5,0.2-0.7,0.3c-0.5,0.3-1,0.5-1.5,0.8c-0.2,0.1-0.3,0.2-0.5,0.3c-0.7,0.4-1.4,0.8-2,1.3
			c-0.1,0-0.1,0.1-0.2,0.1c-0.6,0.4-1.2,0.9-1.8,1.3c-0.2,0.2-0.4,0.3-0.6,0.5c-0.4,0.3-0.8,0.7-1.2,1
			C157.4,65,168.7,58.7,181.5,58.7z M196.9,167.1c-4.6,3.5-9.7,5.7-15.1,5.7c-5.4,0-10.6-2.2-15.2-5.7c-7.8-6-13.9-16-17.2-26.1
			c-0.3,0.2-0.6,0.4-0.9,0.5c-0.7,0.1-1.4-0.2-2-0.9c-0.5-0.5-0.9-1.1-1.3-1.9v-15.1c0.1,0,0.1-0.1,0.2-0.1c0.5-0.1,1.1,0.1,1.7,0.6
			c0,0,0,0,0-0.1c0.2-1.9,2.7-23.1,18.6-21.6l48.6,25l3.5-3.4v14.7c-1,0.9-2.1,1.8-3.3,2.6c-0.2,0.1-0.4,0.2-0.6,0.4
			c-5.8,3.7-13.7,6.4-22.6,7.1c-1.1-1.6-2.9-2.7-5-2.7h-8c-3.3,0-6,2.7-6,6c0,3.3,2.7,6,6,6h8c2.3,0,4.3-1.3,5.3-3.2
			c6.9-0.5,13.2-2.1,18.6-4.4C206.8,156.9,202.2,163,196.9,167.1z"/>
	</g>
</g>
</svg>
